# xmcd
#
# Track frame offsets: 
#        150
#        24954
#        48579
#        71302
#        90858
#        114230
#        143808
#        168730
#        189742
#        205238
#
# Disc length: 3061 seconds
#
# Revision: 0
# Processed by: cddbd v1.5.2PL0 Copyright (c) Steve Scherf et al.
# Submitted via: ExactAudioCopy v1.0b3
#
DISCID=800bf30a
DTITLE=Ngoc Son - Tinh Cha
DYEAR=1999
DGENRE=
TTITLE0=Tinh Cha
TTITLE1=Giua Mac Tu Khoa nghe cau ho Nghe Tinh
TTITLE2=Thuo ban dau
TTITLE3=Ke dau tinh
TTITLE4=Rung thu quen loi
TTITLE5=Tinh Me
TTITLE6=Bong dang nguoi yeu
TTITLE7=Thu bay chieu nay
TTITLE8=Ru lai tinh gan
TTITLE9=Tron doi yeu em
EXTD=
EXTT0=
EXTT1=
EXTT2=
EXTT3=
EXTT4=
EXTT5=
EXTT6=
EXTT7=
EXTT8=
EXTT9=
PLAYORDER=
